<svg xmlns="http://www.w3.org/2000/svg" viewBox="0 0 58.88 85.15"><defs><style>.cls-1{fill:#fff;}</style></defs><title>アセット 6</title><g id="レイヤー_2" data-name="レイヤー 2"><g id="レイヤー_1-2" data-name="レイヤー 1"><path class="cls-1" d="M46.38,37.06a12.35,12.35,0,0,0-.77,2.36A6.36,6.36,0,0,0,46,42.23c.12.36.43,1.06,0,1.32-.64.36-1.42-1-1.66-1.45a7,7,0,0,1-.85-2.65,5.59,5.59,0,0,1,.19-2c.55-2,2.25-4.21,1.34-6.39-.51-1.2-1.22-1.34-1-1.88a.42.42,0,0,1,.37-.24,1.57,1.57,0,0,1,.8.22,4.76,4.76,0,0,1,2,3.66,10.11,10.11,0,0,1-.73,4Z" transform="translate(0 0)"/><path class="cls-1" d="M50.68,37.06a12.45,12.45,0,0,0-.77,2.36,6.38,6.38,0,0,0,.41,2.81c.12.36.43,1.06,0,1.32-.64.36-1.41-1-1.65-1.45a6.92,6.92,0,0,1-.85-2.65A5.84,5.84,0,0,1,48,37.4c.51-2,2.24-4.21,1.33-6.36-.51-1.2-1.21-1.34-1-1.88a.44.44,0,0,1,.37-.24,1.58,1.58,0,0,1,.8.22,4.79,4.79,0,0,1,2,3.66,10.31,10.31,0,0,1-.73,4Z" transform="translate(0 0)"/><path class="cls-1" d="M55.07,36.8l-.09.25a12.26,12.26,0,0,0-.77,2.36,6.23,6.23,0,0,0,.41,2.81c.13.36.44,1.06,0,1.31-.64.36-1.42-1-1.65-1.45a6.94,6.94,0,0,1-.85-2.65c-.2-2,1-3.67,1.55-5.51a3.67,3.67,0,0,0,0-2.9c-.51-1.2-1.21-1.34-1-1.88a.44.44,0,0,1,.38-.24,1.59,1.59,0,0,1,.79.22,4.79,4.79,0,0,1,2,3.66,10.38,10.38,0,0,1-.73,4" transform="translate(0 0)"/><path class="cls-1" d="M41.9,15.51A1.29,1.29,0,0,1,40.85,15a1.37,1.37,0,0,1,.28-1.87L42.61,12a1.27,1.27,0,0,1,1.81.29,1.37,1.37,0,0,1-.28,1.87l-1.47,1.12a1.27,1.27,0,0,1-.76.26" transform="translate(0 0)"/><path class="cls-1" d="M41.9,10.4a1.29,1.29,0,0,1-1.05-.55A1.37,1.37,0,0,1,41.13,8l1.48-1.11a1.27,1.27,0,0,1,1.81.29A1.37,1.37,0,0,1,44.14,9l-1.47,1.12a1.25,1.25,0,0,1-.76.26" transform="translate(0 0)"/><path class="cls-1" d="M41.9,5.3a1.3,1.3,0,0,1-1.05-.55,1.37,1.37,0,0,1,.28-1.87l1.48-1.12A1.27,1.27,0,0,1,44.42,2a1.37,1.37,0,0,1-.28,1.87L42.67,5a1.27,1.27,0,0,1-.76.26" transform="translate(0 0)"/><path class="cls-1" d="M50.93,13.35a1.28,1.28,0,0,1-1.05-.55,1.37,1.37,0,0,1,.28-1.88l1.11-.84a1.27,1.27,0,0,1,1.82.29,1.37,1.37,0,0,1-.28,1.87l-1.11.84a1.27,1.27,0,0,1-.77.26" transform="translate(0 0)"/><path class="cls-1" d="M42,21.2a1.28,1.28,0,0,1-1-.52,1.37,1.37,0,0,1,.24-1.88l2.49-2a1.28,1.28,0,0,1,1.08-.24,1.31,1.31,0,0,1,.88.71,2.08,2.08,0,0,0,1.53,1.08c1.4.13,7.35,0,9.51,0A1.34,1.34,0,0,1,56.76,21c-.33,0-8,.17-9.82,0a4.45,4.45,0,0,1-2.68-1.29L42.8,20.92a1.28,1.28,0,0,1-.79.28" transform="translate(0 0)"/><path class="cls-1" d="M49.84,3.82a1.3,1.3,0,0,1-1.17-.76l-.54-1.14a1.36,1.36,0,0,1,.6-1.79,1.28,1.28,0,0,1,1.74.62L51,1.89a1.36,1.36,0,0,1-.6,1.79,1.25,1.25,0,0,1-.56.14" transform="translate(0 0)"/><path class="cls-1" d="M53.65,3.82a1.29,1.29,0,0,1-.56-.13,1.36,1.36,0,0,1-.6-1.79L53,.76A1.28,1.28,0,0,1,54.75.14a1.36,1.36,0,0,1,.6,1.79l-.54,1.14a1.28,1.28,0,0,1-1.17.76" transform="translate(0 0)"/><path class="cls-1" d="M51,7.75a1.27,1.27,0,0,1-.52-.11,1.36,1.36,0,0,1-.67-1.77l.93-2.19A1.28,1.28,0,0,1,52.45,3a1.36,1.36,0,0,1,.67,1.77L52.18,7a1.3,1.3,0,0,1-1.19.8" transform="translate(0 0)"/><path class="cls-1" d="M56.27,4.71h-9.4a1.32,1.32,0,0,1-1.3-1.34A1.32,1.32,0,0,1,46.87,2h9.4a1.32,1.32,0,0,1,1.3,1.34,1.32,1.32,0,0,1-1.3,1.34" transform="translate(0 0)"/><path class="cls-1" d="M55.08,17.23H47.91a1.32,1.32,0,0,1-1.3-1.34V7.32A1.32,1.32,0,0,1,47.91,6h7.18a1.32,1.32,0,0,1,1.3,1.34v8.57a1.32,1.32,0,0,1-1.3,1.34m-5.88-2.68h4.58V8.66H49.21Z" transform="translate(0 0)"/><path class="cls-1" d="M45.24,71.51a1.32,1.32,0,0,1-1.3-1.34V59.8a1.3,1.3,0,1,1,2.6,0V70.17a1.32,1.32,0,0,1-1.3,1.34" transform="translate(0 0)"/><path class="cls-1" d="M43.34,55.89a1.3,1.3,0,0,1-1.05-.55,1.37,1.37,0,0,1,.28-1.87,11.2,11.2,0,0,0,2.33-2.54,1.28,1.28,0,0,1,1.8-.38,1.36,1.36,0,0,1,.37,1.85,13.92,13.92,0,0,1-3,3.23,1.27,1.27,0,0,1-.77.26" transform="translate(0 0)"/><path class="cls-1" d="M43.13,63a1.27,1.27,0,0,1-1-.48,1.37,1.37,0,0,1,.16-1.89A10.55,10.55,0,0,0,45,57.17a1.29,1.29,0,0,1,1.7-.7,1.36,1.36,0,0,1,.69,1.75A13.09,13.09,0,0,1,44,62.66a1.29,1.29,0,0,1-.83.31" transform="translate(0 0)"/><path class="cls-1" d="M51.93,57.93a1.3,1.3,0,0,1-.8-.28l-2.74-2.19a1.38,1.38,0,0,1,0-2.09l3.32-2.85a1.27,1.27,0,0,1,1.83.17,1.37,1.37,0,0,1-.17,1.89l-2.08,1.78,1.46,1.16A1.37,1.37,0,0,1,53,57.41a1.28,1.28,0,0,1-1,.52" transform="translate(0 0)"/><path class="cls-1" d="M57.59,60.39H49.76a1.3,1.3,0,0,1-1.22-.87A1.36,1.36,0,0,1,48.9,58l6.54-5.94a1.27,1.27,0,0,1,1.83.12,1.37,1.37,0,0,1-.12,1.89l-4,3.6h2.57l0-.08a1.35,1.35,0,0,1,.81-1.71,1.29,1.29,0,0,1,1.65.83l.62,1.86a1.39,1.39,0,0,1-.17,1.22,1.29,1.29,0,0,1-1.06.56" transform="translate(0 0)"/><path class="cls-1" d="M50.08,71.48a1.32,1.32,0,0,1-1.3-1.34A1.34,1.34,0,0,1,49.43,69c.5-.47,2.35-2.68,4.35-5.12H52l-1.73,2.07a1.26,1.26,0,0,1-1.83.14,1.37,1.37,0,0,1-.14-1.89l2.12-2.53a1.28,1.28,0,0,1,1-.47h5.13a1.3,1.3,0,0,1,1.18.77,1.38,1.38,0,0,1-.18,1.43c-6.53,8.1-6.74,8.1-7.48,8.1" transform="translate(0 0)"/><path class="cls-1" d="M56.79,71.48H55.9a1.29,1.29,0,0,1-1.07-.57c-.32-.4-2.55-2.92-4.54-5.14a1.37,1.37,0,0,1,.07-1.89A1.27,1.27,0,0,1,52.2,64c2.52,2.82,3.72,4.16,4.3,4.85h.29a1.34,1.34,0,0,1,0,2.68" transform="translate(0 0)"/><path class="cls-1" d="M31.48,60.13a1.5,1.5,0,0,1-.62-.13,1.61,1.61,0,0,1-.79-2.09l.14-.33H21.28a1.59,1.59,0,0,1,0-3.17h0l11.28,0a1.51,1.51,0,0,1,1.28.72,1.61,1.61,0,0,1,.12,1.5l-1.07,2.54a1.54,1.54,0,0,1-1.41,1" transform="translate(0 0)"/><path class="cls-1" d="M29.66,71.51c-.75,0-1.6,0-2.45,0-3-.05-4.11-2.79-4.17-4.62V52.12a1.54,1.54,0,1,1,3.07,0V66.83c0,.3.15,1.47,1.15,1.49,2.51,0,4.9,0,4.92,0a1.58,1.58,0,0,1,.06,3.17s-1.1,0-2.58,0" transform="translate(0 0)"/><path class="cls-1" d="M6.87,30.12h0v11a1.53,1.53,0,1,1-3.07,0v-11a1.53,1.53,0,1,1,3.07,0" transform="translate(0 0)"/><path class="cls-1" d="M3.88,71.51a1.56,1.56,0,0,1-1.53-1.58V51.67a1.56,1.56,0,0,1,1.53-1.58,1.56,1.56,0,0,1,1.53,1.58V69.93a1.56,1.56,0,0,1-1.53,1.58" transform="translate(0 0)"/><path class="cls-1" d="M10.56,62a1.52,1.52,0,0,1-.39,0c-1.23-.33-2.32-.61-3.26-.85-1.23-.31-2.2-.56-2.92-.78a1.59,1.59,0,0,1-1-2,1.52,1.52,0,0,1,1.9-1.08c.68.2,1.62.45,2.8.74.95.24,2,.52,3.29.85A1.59,1.59,0,0,1,12,60.79,1.54,1.54,0,0,1,10.56,62" transform="translate(0 0)"/><path class="cls-1" d="M29.93,21.14l-.19,0-3.25-.45A1.48,1.48,0,0,1,25.25,19a1.46,1.46,0,0,1,1.62-1.28l1.62.23V1.49a1.44,1.44,0,1,1,2.89,0V19.65a1.52,1.52,0,0,1-.49,1.12,1.41,1.41,0,0,1-1,.37" transform="translate(0 0)"/><path class="cls-1" d="M21.2,17.56a1.39,1.39,0,0,1-.9-.33,1.52,1.52,0,0,1-.22-2.09C24.18,9.9,27.69,5,27.72,4.93a1.41,1.41,0,0,1,2-.32A1.52,1.52,0,0,1,30,6.7s-3.58,5-7.72,10.31a1.42,1.42,0,0,1-1.12.55" transform="translate(0 0)"/><path class="cls-1" d="M32.63,6.84H22.47a1.49,1.49,0,0,1,0-3H32.63a1.49,1.49,0,0,1,0,3" transform="translate(0 0)"/><path class="cls-1" d="M3,21c-.55,0-1,0-1.22,0A1.57,1.57,0,0,1,.48,19.18,1.54,1.54,0,0,1,2.19,17.8H3l1.92,0c1.08,0,1.15-1.39,1.15-1.54V1.58a1.54,1.54,0,1,1,3.07,0V16.29C9.08,18.17,7.93,20.9,5,21L3,21" transform="translate(0 0)"/><path class="cls-1" d="M12.91,7H1.53a1.58,1.58,0,0,1,0-3.17H12.91a1.58,1.58,0,0,1,0,3.17" transform="translate(0 0)"/><path class="cls-1" d="M26.17,45.59c-1.48,0-2.57,0-2.58,0a1.59,1.59,0,0,1,.05-3.17s2.42,0,4.93,0c1.08,0,1.15-1.39,1.16-1.54V29.08a1.53,1.53,0,1,1,3.07,0V40.91c-.06,1.87-1.21,4.61-4.17,4.66l-2.45,0" transform="translate(0 0)"/><path class="cls-1" d="M24.41,29.72H22.58a1.59,1.59,0,0,1,0-3.17h1.82a1.59,1.59,0,0,1,0,3.17" transform="translate(0 0)"/><path class="cls-1" d="M38.16,78.64a.49.49,0,0,0-.48.49v5.52a.48.48,0,1,0,1,0V79.13a.49.49,0,0,0-.47-.49" transform="translate(0 0)"/><path class="cls-1" d="M21.9,78.64h-.37a2,2,0,0,0-2,2v2.47a2,2,0,0,0,2,2h.37a2,2,0,0,0,2-2V80.66a2,2,0,0,0-2-2m1,4.49a1,1,0,0,1-1,1h-.37a1,1,0,0,1-1-1V80.66a1,1,0,0,1,1-1h.37a1,1,0,0,1,1,1Z" transform="translate(0 0)"/><path class="cls-1" d="M4.62,82.94l.22-.09A4.51,4.51,0,0,0,6.21,82a2,2,0,0,0,.54-1.51,1.84,1.84,0,0,0-2-1.88H4.4a1.78,1.78,0,0,0-1.86,1.75A.48.48,0,0,0,3,80.9a.5.5,0,0,0,.48-.51c0-.52.48-.74.93-.77h.32c.94,0,1,.63,1,.9a1,1,0,0,1-.25.8,3.93,3.93,0,0,1-1.06.61L4.23,82c-.89.4-1.76.9-1.76,2.13v.48a.49.49,0,0,0,.48.49H6.27a.49.49,0,0,0,0-1H3.49a.05.05,0,0,1,0,0,.07.07,0,0,1,0,0c0-.43.2-.69,1.19-1.15" transform="translate(0 0)"/><path class="cls-1" d="M55.5,81.94a.06.06,0,0,1,0,0,.06.06,0,0,1,0,0,1.71,1.71,0,0,0,.64-1.31,2.12,2.12,0,0,0-4.19,0,1.71,1.71,0,0,0,.64,1.31.06.06,0,0,1,0,0,.06.06,0,0,1,0,0,1.72,1.72,0,0,0-.64,1.31,2.12,2.12,0,0,0,4.19,0,1.72,1.72,0,0,0-.64-1.31M54,84.14c-.64,0-1.18-.41-1.18-.89s.54-.88,1.18-.88h0c.64,0,1.18.41,1.18.88s-.54.89-1.18.89m0-2.72c-.64,0-1.18-.41-1.18-.89s.54-.89,1.18-.89,1.18.41,1.18.89-.54.89-1.18.89" transform="translate(0 0)"/></g></g></svg>