
<svg id='logo-2018'  xmlns="http://www.w3.org/2000/svg" viewBox="0 0 442.89 50.41">
<style>.logo-2018-1{fill:#cf3534;}</style>
<title>道後オンセナート2018</title>
<path class="logo-2018-1" d="M32.62,16.31A16.31,16.31,0,1,0,.3,19.49a16,16,0,0,0,.51,1.87A17,17,0,0,0,4.27,27c.62.72.71,1.05.71,1.28a4.61,4.61,0,0,1-.88,2.34l0,.08a12.33,12.33,0,0,0-.61,1.14,11.61,11.61,0,0,0-1,4.65A13.94,13.94,0,0,0,15.26,50.37l1.06,0h.46l.58,0A13.94,13.94,0,0,0,30.2,36.52a11.52,11.52,0,0,0-1-4.65,13.5,13.5,0,0,0-.65-1.21,4.66,4.66,0,0,1-.88-2.36c0-.23.09-.56.71-1.28a17.09,17.09,0,0,0,3.46-5.65,15.52,15.52,0,0,0,.5-1.88A16,16,0,0,0,32.62,16.31Zm-6.7,5.57a12.87,12.87,0,0,1-2.08,2.51,6.43,6.43,0,0,0-1.79,2.5,4.13,4.13,0,0,0,.62,3.83c.18.28.36.55.56.83l.37.54A7.84,7.84,0,0,1,25,36.52a8.68,8.68,0,1,1-17.35,0A7.81,7.81,0,0,1,9,32.09l.36-.52c.2-.28.39-.56.58-.85a4.16,4.16,0,0,0,.62-3.83A6.31,6.31,0,0,0,8.8,24.42a12.82,12.82,0,0,1-2.11-2.54,10.35,10.35,0,0,1-1.5-5.57,11.11,11.11,0,0,1,22.22,0A10.35,10.35,0,0,1,25.92,21.88Z"/>
<path class="logo-2018-1" d="M54.57,37.77a2.14,2.14,0,0,0,1.25-.41l2.41-1.77a2.12,2.12,0,1,0-2.51-3.43l-2.42,1.76a2.12,2.12,0,0,0,1.26,3.84Z"/>
<path class="logo-2018-1" d="M54.57,29.68a2.09,2.09,0,0,0,1.25-.41l2.41-1.77a2.13,2.13,0,1,0-2.51-3.43l-2.42,1.77a2.13,2.13,0,0,0,1.26,3.84Z"/>
<path class="logo-2018-1" d="M54.57,21.58a2.11,2.11,0,0,0,1.25-.41l2.41-1.77A2.12,2.12,0,1,0,55.73,16l-2.42,1.77a2.12,2.12,0,0,0,1.26,3.84Z"/>
<path class="logo-2018-1" d="M69.35,34.36a2.08,2.08,0,0,0,1.25-.41l1.81-1.33a2.13,2.13,0,1,0-2.51-3.43l-1.81,1.32a2.13,2.13,0,0,0,1.26,3.85Z"/>
<path class="logo-2018-1" d="M78.8,42.3c-3.55.08-13.28.23-15.58,0a3.38,3.38,0,0,1-2.49-1.71,2.13,2.13,0,0,0-3.2-.75L53.45,43a2.13,2.13,0,0,0-.39,3,2.13,2.13,0,0,0,3,.39l2.41-1.85a7.39,7.39,0,0,0,4.39,2c3,.28,15.53,0,16.06,0A2.12,2.12,0,0,0,81,44.38,2.16,2.16,0,0,0,78.8,42.3Z"/>
<path class="logo-2018-1" d="M62.7,20.65h5.62l-.81,1.85a.82.82,0,0,0,0,.16H64.4a2.13,2.13,0,0,0-2.12,2.13V38.38A2.12,2.12,0,0,0,64.4,40.5H76.15a2.12,2.12,0,0,0,2.12-2.12V24.79a2.13,2.13,0,0,0-2.12-2.13H72.09l.84-1.92s0-.06,0-.09h5.14a2.12,2.12,0,0,0,0-4.25H76.5l.08-.16a2.12,2.12,0,0,0-3.82-1.85l-.87,1.8a1.41,1.41,0,0,0-.06.21H69.54c0-.07,0-.15-.06-.21l-.88-1.8a2.12,2.12,0,0,0-3.82,1.86l.08.16H62.7a2.12,2.12,0,0,0,0,4.25ZM74,36.25H66.53V26.91H74Z"/>
<path class="logo-2018-1" d="M91.23,22.15a2.08,2.08,0,0,0,1.25-.41,22.5,22.5,0,0,0,4.86-5.12,2.13,2.13,0,1,0-3.55-2.34,18,18,0,0,1-3.81,4,2.13,2.13,0,0,0,1.26,3.85Z"/>
<path class="logo-2018-1" d="M96.73,23.06a2.14,2.14,0,0,0-2.79,1.12,17,17,0,0,1-4.42,5.45,2.12,2.12,0,0,0,1.36,3.76,2.08,2.08,0,0,0,1.33-.48V44.8a2.13,2.13,0,0,0,4.26,0V28.35a.68.68,0,0,0,0-.08,15.23,15.23,0,0,0,1.4-2.45A2.12,2.12,0,0,0,96.73,23.06Z"/>
<path class="logo-2018-1" d="M115.55,23.51a2.13,2.13,0,0,0-4,1.38l0,.13h-4.2l6.48-5.7a2.12,2.12,0,1,0-2.8-3.19l-5.38,4.73-1.46-1.13,3.4-2.83a2.12,2.12,0,0,0-2.71-3.27l-5.44,4.53a2.12,2.12,0,0,0,.06,3.31l2.89,2.25-2.08,1.83a2.13,2.13,0,0,0,1.41,3.72h12.81a2.13,2.13,0,0,0,2-2.81Z"/>
<path class="logo-2018-1" d="M113.25,42.63h-.47c-.54-.62-1.43-1.6-2.84-3.13,1.27-1.5,2.77-3.29,4.58-5.47a2.13,2.13,0,0,0-1.64-3.48h-8.41a2.12,2.12,0,0,0-1.61.73l-3.47,4a2.13,2.13,0,1,0,3.21,2.78l.12-.14,1.51,1.63c-1.45,1.67-2.59,2.93-3,3.34a2.13,2.13,0,0,0,1.07,4c.83,0,1.26,0,4.88-4.13,1.49,1.63,2.63,2.89,2.91,3.22a2.14,2.14,0,0,0,1.74.91h1.45a2.13,2.13,0,1,0,0-4.25Zm-7.52-7.69c-.05-.06-.13-.09-.19-.14h2.78L107,36.33Z"/>
<path class="logo-2018-1" d="M215,19.2l-10.56,0V15.56a2.52,2.52,0,0,0-5,0v3.61h-2.87a2.51,2.51,0,0,0,0,5h2.87V39c.09,2.89,2,7.23,6.83,7.33,1.41,0,2.79,0,4,0,2.42,0,4.2,0,4.23,0a2.51,2.51,0,0,0-.1-5s-3.95.08-8.06,0c-1.64,0-1.85-1.91-1.88-2.37V24.21h6.72l-.22.52a2.51,2.51,0,1,0,4.59,2l1.77-4A2.52,2.52,0,0,0,215,19.2Z"/>
<path class="logo-2018-1" d="M278.92,28.9l-13.77,0h0a2.51,2.51,0,0,0,0,5l13.77,0h0a2.51,2.51,0,0,0,0-5Z"/>
<path class="logo-2018-1" d="M308.07,27c-2-.53-3.84-1-5.39-1.35s-2.65-.66-3.65-.93V15.56a2.51,2.51,0,1,0-5,0v29a2.51,2.51,0,0,0,5,0V29.87l2.45.61c1.54.38,3.32.82,5.33,1.34A2.51,2.51,0,0,0,308.07,27Z"/>
<path class="logo-2018-1" d="M147.25,19.32H145.2V15.56a2.36,2.36,0,0,0-4.72,0v3.76h-9.86a2.36,2.36,0,0,0,0,4.72H137c-2.29,3-6.08,8-10.25,13.17a2.36,2.36,0,0,0,.36,3.31,2.3,2.3,0,0,0,1.48.53,2.35,2.35,0,0,0,1.83-.88c4.07-5,7.76-9.86,10.09-13V41.65l-2.65-.36a2.36,2.36,0,1,0-.63,4.68l5.33.71.31,0a2.36,2.36,0,0,0,2.36-2.36V24h2.06a2.36,2.36,0,1,0,0-4.72Z"/>
<path class="logo-2018-1" d="M251.59,19.17h-6.16V15.56a2.52,2.52,0,0,0-5,0v3.61H233a2.51,2.51,0,0,0,0,5h7.42V38.8c0,.25-.12,2.42-1.88,2.45l-3.14,0c-1.07,0-1.36,0-1.33,0a2.51,2.51,0,0,0-.61,5c.32,0,1.09.05,2,.05s2.28,0,3.16,0c4.85-.09,6.73-4.43,6.83-7.4V24.2h6.16a2.51,2.51,0,0,0,0-5Z"/>
<path class="logo-2018-1" d="M178.86,17.61a2.51,2.51,0,0,0-2.51,2.51V38.8c0,.25-.13,2.42-1.89,2.45-4.11.07-8,0-8.06,0a2.51,2.51,0,1,0-.09,5s1.8,0,4.22,0c1.22,0,2.61,0,4,0,4.84-.09,6.74-4.43,6.83-7.4V20.13A2.52,2.52,0,0,0,178.86,17.61Z"/>
<path class="logo-2018-1" d="M167.66,21.14a2.51,2.51,0,1,0,0-5h-3a2.51,2.51,0,1,0,0,5Z"/>
<path class="logo-2018-1" d="M407.15,17.11a2.56,2.56,0,0,0-5.12,0V43a2.56,2.56,0,0,0,5.12,0Z"/>
<path class="logo-2018-1" d="M385.74,24.26a9.71,9.71,0,0,0-9.7-9.7h-1.77a9.71,9.71,0,0,0-9.7,9.7V35.8a9.72,9.72,0,0,0,9.7,9.72H376a9.72,9.72,0,0,0,9.7-9.72ZM380.61,35.8A4.6,4.6,0,0,1,376,40.41h-1.77a4.6,4.6,0,0,1-4.57-4.61V24.26a4.6,4.6,0,0,1,4.57-4.6H376a4.59,4.59,0,0,1,4.58,4.6Z"/>
<path class="logo-2018-1" d="M347.59,40.4H334.24a.14.14,0,0,1-.11,0,.12.12,0,0,1,0-.11c.11-1.83.93-3,5.58-5.06l1.16-.49a21.49,21.49,0,0,0,6.63-3.83,9.5,9.5,0,0,0,2.67-7.25c0-4.51-3.06-9.06-9.91-9.06h-1.69c-5.52.27-9.23,3.65-9.23,8.43a2.55,2.55,0,0,0,2.57,2.63A2.62,2.62,0,0,0,334.41,23c0-2.27,2.19-3.21,4.24-3.34h1.57c4.19,0,4.81,2.49,4.81,4,0,1.81-.31,2.78-1.13,3.59A18.61,18.61,0,0,1,339,30l-1.33.56c-4.19,1.83-8.65,4.27-8.65,10.21V43a2.55,2.55,0,0,0,2.56,2.54h16.06a2.56,2.56,0,0,0,0-5.11Z"/>
<path class="logo-2018-1" d="M439.65,30a8.41,8.41,0,0,0,3.24-6.47c0-5-4.76-9-10.6-9s-10.61,4.05-10.61,9A8.41,8.41,0,0,0,424.92,30a8.42,8.42,0,0,0-3.24,6.48c0,5,4.76,9,10.61,9s10.6-4.05,10.6-9A8.42,8.42,0,0,0,439.65,30Zm-12.87-6.47c0-2.13,2.52-3.92,5.5-3.92s5.5,1.79,5.5,3.92-2.52,3.91-5.5,3.92h0C429.3,27.45,426.78,25.66,426.78,23.54Zm5.5,16.86c-3,0-5.5-1.79-5.5-3.92s2.52-3.92,5.49-3.92h0c3,0,5.5,1.79,5.5,3.92S435.27,40.4,432.29,40.4Z"/>
</svg>
